<svg xmlns="http://www.w3.org/2000/svg" id="Layer_1" data-name="Layer 1" viewBox="0 0 432 207"><path d="M233.62,156.82a14.87,14.87,0,0,0-10.19,2.91c-2.18,1.46-3.82,7.46-1.27,12.74A11.86,11.86,0,0,0,232.89,179c3.1,0,9.83-.73,12-8.19C248.08,160,238.37,157.16,233.62,156.82Z" style="fill:#d79a2b"></path><path d="M209,159.75a18.17,18.17,0,0,0-4-2.14,120.26,120.26,0,0,1-13.93,1.72c-3.07,2-5.21,5.55-3.47,11.5,2.18,7.44,8.9,8.17,12,8.17a11.86,11.86,0,0,0,10.72-6.54C212.84,167.2,211.2,161.2,209,159.75Z" style="fill:#d79a2b"></path><path d="M195,191.22a3,3,0,0,1,.5-2.57s.34,2,2,1.93c3.78-.18,10.44-4.78,14.48-3.58s3.89,4.19,1.35,6C211,194.6,196.25,197.33,195,191.22Z" style="fill:#5d380b"></path><path d="M237.44,191.22a3,3,0,0,0-.5-2.57s-.34,2-2,1.93c-3.77-.18-10.44-4.78-14.48-3.58s-3.88,4.19-1.34,6C221.42,194.6,236.19,197.33,237.44,191.22Z" style="fill:#5d380b"></path><path d="M248.84,159.22c-.66-.29-1.69.08-2.55-.36-.89,0-8-3.38-13.15-3.38a17.17,17.17,0,0,0-8.88,2.14c-1.55.68-5.53-.74-8-.35-2.51-.39-6.5,1-8,.35a17.22,17.22,0,0,0-8.89-2.14c-5.15,0-12.26,3.38-13.15,3.38-.86.44-1.89.07-2.55.36a5.91,5.91,0,0,0-.29,3c.18.53,1.6.88,2.13,1.24s0-.71.18,3.38,2.69,14.49,14.75,13.5c10.84-.89,13.13-11,12.88-16.22a28.07,28.07,0,0,1-.44-2.79c0-1.38,2.83-1.46,3.42-1.47s3.41.09,3.42,1.47a27.75,27.75,0,0,1-.45,2.79c-.25,5.19,2.05,15.33,12.88,16.22,12.06,1,14.57-9.42,14.75-13.5s-.35-3,.18-3.38,1.95-.71,2.13-1.24A5.91,5.91,0,0,0,248.84,159.22ZM210,172.36a11.59,11.59,0,0,1-10.48,6.4c-3,0-9.6-.71-11.73-8-3.1-10.6,6.38-13.35,11-13.68a14.44,14.44,0,0,1,10,2.85C210.84,161.35,212.44,167.21,210,172.36Zm34.74-1.6c-2.13,7.29-8.71,8-11.73,8a11.59,11.59,0,0,1-10.48-6.4c-2.49-5.15-.89-11,1.24-12.43a14.45,14.45,0,0,1,9.95-2.85C238.31,157.41,247.79,160.16,244.69,170.76Z" style="fill:#5d380b"></path><path d="M260.64,123.63c-6.08-.52-15.93.38-15.93.38a83,83,0,0,0-2.48-10.61c-1.21-3.59-4.19-10-5.95-12A10.08,10.08,0,0,0,226,98.52c-5,1.38-8.55,3.77-11.87,3.77-5,0-8-2.21-14.94-2.21-6.31,0-9.68,3-13.56,11.07-3,6.29-4,14-4.45,17.42-.12.94-.19,3.76-.25,4.47-.13,1.55-.11,4.67-.07,7-7.29,2.16-18.73,5.33-20.71,9.93a3.3,3.3,0,0,0,1,4c4,3.14,12.48,4.11,17.73,4.53,9.36-.07,13.6,2.46,42.85-5.27C249,146,262,139.69,268.55,134.76c2.49-2.13,3.94-4.11,4.12-5.84C272.12,126.16,267.59,124.23,260.64,123.63Z" style="fill:#ec7700"></path><path d="M182.73,159.28c-6.61-.35-18.75-1.23-21.62-4.74a4.45,4.45,0,0,1-1.34-3.51l.25-.67a4.15,4.15,0,0,0,1.24,3.2c4.14,4.42,21.11,4.7,22.84,4.7,7,0,14,.76,37.45-5.44,22.88-6,38.63-12.26,46.79-18.45,2.34-2,3.86-3.47,4-5.37a4.17,4.17,0,0,0-.05-1.12,2.33,2.33,0,0,1,.39,1.48c0,1.55-1.41,3.66-4,5.88-8.23,6.24-24.27,12.83-47.25,18.75C195.84,160.57,185.48,159.42,182.73,159.28Z" style="fill:#b95f18"></path><path d="M246.34,128.32c-.14,0-2.14-8.92-3.61-13.28-5.23,6.85-12.46,12.27-30.81,15.24-10.12,1.64-23.18,1.62-31.06-.35-.12,1-.34,11-.28,12.66,8.4,3.08,23.31,3,34.14,1.12C227.59,141.47,238.51,137,246.34,128.32Z" style="fill:#5d380b"></path><path d="M17.7,112.55l1-1c1.31,1.33,2.56,2.48,3.21,3.08l13.62,12.51a8,8,0,0,0,1,.71c.33.3,1.13,1.27,1.13,1.27l.91.85c1,.9,1.83,1.43,2.28,1.85s2.31,2.36,2.77,2.78l7.14,6.56c12.37,11.36,17.45,7.81,23.28,1.46a13.55,13.55,0,0,0,2-2.73A11,11,0,0,1,73,146.39c-5.54,6-9.58,8.72-20.78-1.57L45,138.26c-.19-.18-2.43-2.47-2.56-2.59l-.2-.18c-.72-.66-1.56-1.2-2.28-1.86l-.92-.84c-.19-.18-1-1.15-1.12-1.27s-.84-.53-1-.71L23.29,118.29c-1.57-1.44-5.64-5.42-5.64-5.42Zm11.49-12.26.73-.78c12,11.13,24.38,22.88,36.31,34l.06-.06c.06.06.06.06.07.18v.13a2.48,2.48,0,0,1-.55,1.78L28.58,100.7l.51.1Z" style="fill:#f9a056"></path><path d="M87.79,123.2l1.16.69,1.49.24,4-2.86a2.1,2.1,0,0,1-.33,2.43l-4.9,3.54-.37-.06-.64-.42-2.19-3C75.63,108.5,64.64,93.3,54.07,78.22c-.31-.43-1-1.69-.35-2.15l.65-.47c3.26,4.66,6.52,9.33,9.8,13.87,7.17,10.06,14.27,20.19,21.17,30.34ZM69.9,64.91,71,64.13l11.3,15.64c.31.43,1.6,2.36,2.93,4.36A19.8,19.8,0,0,0,86.45,86c-1.47-1.13-3-2.26-4.35-3.44L69.86,65.6Zm21.93,43.84c-1.72-2.38-3.44-4.75-5.14-7.26A13.25,13.25,0,0,0,88.8,103c3.64,2.75,7.28,5.82,10.8,8.87l-.17-.09a9.09,9.09,0,0,0,1.24,1,5.33,5.33,0,0,0,1.9,1.27,16,16,0,0,0,2.08.14l6.32-4.46.84,1.15-.1.62-8.29,6a4.5,4.5,0,0,1-1-.16,2.59,2.59,0,0,1-1.17-.69C98.13,114,95,111.3,91.83,108.75Z" style="fill:#f9a056"></path><path d="M126.94,100.61l1.46-.66a22.75,22.75,0,0,0,3.89-2l2-.52.22-.58c.25-.11.62-.38,1.51-.78s1.74-.89,2.07-1A11.48,11.48,0,0,0,140,93.9,21.54,21.54,0,0,1,138.7,96a10.44,10.44,0,0,1-3.11,2.19c-.65.29-3.65,1.85-4.22,2.11l-.13.35-1.41.35a23.72,23.72,0,0,1-3.94,2.07l-.64.3a.77.77,0,0,1-1.18-.44c-5.83-10-10.45-21.53-15.67-32.83-.29-.65-2.15-4.1-2.44-4.75L97.88,47.49a1.6,1.6,0,0,1,.7-.8l.73-.33,6.8,15c.14.32.69,1.54,1.25,2.55s1,1.87,1.19,2.2l13.33,29.39c0,.08.34.53.49.85a10.5,10.5,0,0,1,.67,1.26l.14.33c.44,1,.83,2.46,2.64,2.8Zm-13.1-51.28-1.21-2.67c1.33-.51,2.65-.61,3.22.2,1.45,2.76,2.18,4.38,3.35,7C120,55.54,132.06,82.18,132.67,84l-.08-.16a2.56,2.56,0,0,1-.73,2.48c-2.71-6.19-12.11-26.92-12.81-28.46-1.17-2.59-1.94-4.29-3.39-7.05A3.28,3.28,0,0,0,113.84,49.33Z" style="fill:#f9a056"></path><path d="M141.46,29.11l.36-.37,1.3-.33,13.81,54c.4,1.55,1.34,5.25,4.88,4.35a23.43,23.43,0,0,0,6-2.92c.53,1.33,6.21-.86,7.7-.78.11,1.17,0,2.2-.77,2.4-1,.26-2.11.36-3.31.66-.48-.06-1.28-.31-1.23-.14,0-.09-.5.22-.82.39-3.62,1.29-3.13-.39-4.6,0-.25.8-4.55,2.64-6,3-1.81.47-2.45-2-2.71-3.07Zm14.71,4.41a13.27,13.27,0,0,1-.27-1.77l5.52-1.41.26,1c-.15.13-.13.59-.34.82Zm6.65,24.55-.49-1.9c.78-.2,1.57-.31,2.44-.53.08,0,.19,0,.28,0l.26,1a.89.89,0,0,1-.25.79Z" style="fill:#f9a056"></path><path d="M184.4,19.23l.26,0c.33,4.52.88,11,1.44,18.88,1,12.24,2,27.14,2.92,39.64a2.77,2.77,0,0,0,3.17,2c.18,0,.35-.11.53-.12l.36,0c.17,0,1.15,0,2.31,0,.36,0,.72,0,1.07,0l.11,1.51c0,.44-1.94.31-1.84.39-.45,0-4.63.07-5.08.1-.26,0-.52.13-.88.15-.53,0-1.16-.09-1.29-.62C186,59.77,183.8,32,183,21.2,182.73,19.61,183.16,19.32,184.4,19.23Zm13.69,8.2-.07-1,0-.54c-.12-.43-.36-1.31-.82-1.45,1.6-.12,3.14.22,3.75,1.33.27,3.73.43,5.95.49,8.08.11,1.6.13,3,.27,5A2.74,2.74,0,0,1,200,40.49c-.22-3.11-.23-5.69-.61-11.1A4.62,4.62,0,0,0,198.09,27.43ZM200,53.68l-.19-2.74a2.14,2.14,0,0,0-.14-.62c1.26.09,2.89.51,3,2.28,0,.45.16,2.22.35,3.63.33,3.37.95,8.31,1.26,12.66l0,.62a24.64,24.64,0,0,0,2.1,9.39l6.83-.49a5.45,5.45,0,0,1,.26,1.23c0,.8-1.11.61-1.64.65l-7.63.55c-1.16-2.42-1.3-5.7-1.48-8.28-.47-6.56-1.49-14.6-1.61-16.28A4.08,4.08,0,0,0,200,53.68Z" style="fill:#f9a056"></path><path d="M233,77.64l.65.52a16.61,16.61,0,0,0,6.82,2.23,21.91,21.91,0,0,0,4.92,0c-2.34,1.61-5.39,1.7-8.66,1.32a14.07,14.07,0,0,1-6-1.95l-.66-.52c-2.52-3-3.21-5.48-3.3-9.34.06-.53,0-2,0-2l4.17-36a19.94,19.94,0,0,1,4-10.09,22.59,22.59,0,0,0-1.86,6.76l-4.2,36.22s0,1.43-.06,2.05c.12,4.4.87,7.17,3.72,10.45Zm11.66-18,1.5.17L245.23,68s-.63.82-1,1.32a3.78,3.78,0,0,1-1,.42l1.14-9.9Zm.55-32.61c.23-1.23.8-2.23,1.95-2.1s1.13,1.83,1,3.16l-1,8.3c-.21,1.85.49,2.74,2.34,3l2.74.32a4.42,4.42,0,0,1,.09.82c-.15,1.23-1.79.77-2.5.69l-4.06-.47c-.62-.07-.86-.37-.78-1l1-8.31C246.14,29.93,246.27,28.07,245.22,27.05Z" style="fill:#f9a056"></path><path d="M269.22,84.32a3.24,3.24,0,0,0,1.57,1.23l-.06-.11,1,.77c-.08,0,.06.11.06.11.09.31.32.76,1.34,1.08l4.5,1.4a1.51,1.51,0,0,0,.62.1,9.22,9.22,0,0,1-1.37.51,7.27,7.27,0,0,1-3.18,0L269.18,88c-.26-.08-.72-1-1-1-.54-.64-1.45-.73-2-1.37l-.18-.33a31.23,31.23,0,0,0-1.34-2.85c-1.36-3.4-.59-7.35,0-10.8.16-.51.41-2.2.46-2.37l8.5-27.15s.9-2,1.11-2.64c.13-.42.72-1.73.8-2A19.43,19.43,0,0,1,276.92,35c.08-.26,1.74-1.69,1.82-2l.43-.79a12.33,12.33,0,0,1,2.79-3l-.46.88a.85.85,0,0,0-.56.29,5.2,5.2,0,0,0-1.18,1.4,25.85,25.85,0,0,0-1.42,2.73s-.21.39-.24.48a11.55,11.55,0,0,0-.56,1.5c-.16.51-1.05,2.47-1.05,2.47L267.93,66.4a5,5,0,0,0-.17,1.16l0-.2a14.31,14.31,0,0,1-.34,1.66c-.6,3.73-1.45,7.93-.16,11.23,0,0,1.35,2.56,1.58,3.29ZM290.3,36.6l.38-1.19a2.49,2.49,0,0,1,2-.32,2.87,2.87,0,0,1,.74.33l.4.78a.72.72,0,0,0,.07.39,1.18,1.18,0,0,0,0,.56L293.8,37c0,.37-.1.9,0,.93-.69,2.2-2.93,9.05-4.77,14.62-2,6.26-4,12.54-4.7,14.74-.11.34-.72,2-1,3-.58,1.58-1.14,3.37-1.33,4-.45,1.44-1,2.94-2.12,2.6l-.5-.16c.47-1.53,2-5.72,2.21-6.48,1.41-4.5,8.11-25,9.52-29.54.08-.25.08-1.74.14-1.91l-.1-.59Z" style="fill:#f9a056"></path><path d="M303.16,96.49l.12,1.67s4.52,2.69,6.25,3.6l.16.08c-.37.51-1.19,1.29-1.66,1l-2.44-1.29c-.86-.45-2-.88-3.07-1.42A4.53,4.53,0,0,1,300.14,98c-.29-1,5.86-14.7,5.86-14.7l8.81-22.8c2.29-6.43,4.75-13.38,7.9-19.35l.42-.79.28-.15,1.42.74c-.59,1.3-1,2.49-1.4,3.59l.05-.08c-1.93,4.61-4,9.38-5.6,14l0-.08-8.86,22.88c-1.82,5-3.59,9.86-5.72,14.47Zm36-47.65.63.33a19.39,19.39,0,0,0-1.65,2.55A36.2,36.2,0,0,0,334,57.55L328.71,65a2.26,2.26,0,0,1,.25-.67l1.11-3.23.78-1.1c.41-.59,5.51-8.15,7-10.07a8.51,8.51,0,0,1,.57-.7S339,48.75,339.17,48.84Z" style="fill:#f9a056"></path><path d="M364.24,63.57l.52.06,1.05.81-34,44.16c-1,1.27-3.31,4.3-.43,6.52a23.33,23.33,0,0,0,6,3c-.73,1.24,4.5,4.37,5.35,5.59-.85.81-1.73,1.36-2.36.87-.84-.65-1.58-1.44-2.57-2.2-.24-.41-.53-1.2-.64-1.06.05-.07-.48-.25-.81-.4-3.25-2-1.62-2.71-2.82-3.63-.78.29-4.88-2-6.08-2.89-1.48-1.14.1-3.18.75-4Zm-9.66,34.66,1.2-1.55c.63.49,1.21,1,1.92,1.59.07.06.08.18.15.24l-.65.84a.9.9,0,0,1-.78.29Zm15.25-20.36a12.54,12.54,0,0,1,1.23-1.3l4.5,3.48-.65.84c-.19,0-.53.26-.85.24Z" style="fill:#f9a056"></path><path d="M398.5,91.3l.18.2c-3.37,3-8.12,7.46-14,12.78-9,8.3-20.11,18.32-29.41,26.74a2.78,2.78,0,0,0,.38,3.73c.12.13.31.21.43.34l.24.26c.12.13.71.92,1.42,1.84.24.26.41.58.65.85l-1.12,1c-.33.3-1.45-1.33-1.46-1.2-.29-.33-2.9-3.61-3.2-3.94s-.42-.34-.66-.6-.65-1-.31-1.4c15.89-14.38,36.4-33.2,44.45-40.48C397.16,90.23,397.66,90.38,398.5,91.3ZM381,124.8,383,123a2.05,2.05,0,0,0,.4-.48c.7,1,1.38,2.59.06,3.78-.33.3-1.64,1.49-2.64,2.51-2.44,2.34-6,5.88-9.19,8.8l-.46.42a24.61,24.61,0,0,0-6.1,7.44l4.6,5.08a5.37,5.37,0,0,1-.81,1c-.65.47-1.17-.5-1.53-.89l-5.13-5.67c1.19-2.4,3.69-4.54,5.6-6.27,4.88-4.42,10.58-10.18,11.83-11.31A4,4,0,0,0,381,124.8Zm19.52-17.66.72-.66.4-.36c.27-.36.81-1.09.64-1.54,1.08,1.19,1.76,2.61,1.26,3.78-2.77,2.51-4.41,4-6.06,5.36-1.18,1.08-2.3,2-3.75,3.28a2.76,2.76,0,0,1-2.31-.3c2.31-2.09,4.34-3.69,8.36-7.33A4.64,4.64,0,0,0,400.48,107.14Z" style="fill:#f9a056"></path><path d="M74,127.34c2.46,4.55,3,9.31-1.29,14-4.15,4.52-7.68,7.31-14.31,3.75-.92-.84-5.54-4.48-6.46-5.32l-7.14-6.56c-.2-.18-2.43-2.48-2.57-2.6l-.19-.18c-.72-.66-1.56-1.19-2.28-1.85l-.92-.85c-.2-.18-1-1.15-1.13-1.27s-.84-.53-1-.71L23.07,113.27c-1.57-1.45-5.64-5.43-5.64-5.43l.05-.31L19.77,105a1,1,0,0,0,1.32-1.44l1.31-1.82.68-.35,38.44,35.32s1,.58,1.55.81a2,2,0,0,0,.7.29c.89.08,2.09.22,2.75-.5a4.79,4.79,0,0,0,1.6-3.84,3.82,3.82,0,0,0-.36-1.06L28.89,96.15v-.37l.1-.51,2-2.16a1.37,1.37,0,0,1,.51-1.22c1-1,1.13-.18,2.39-.1a12.54,12.54,0,0,0,2.21.09l.57.17c3.21,2.94,6.2,5.33,9.48,8.34.72.66,1.08,1.72,1.8,2.38a20.77,20.77,0,0,0,3.19,2.57l13.49,12.39c1,1,6.31,6.15,7.42,7.18.2.18.54.86.74,1l.4.61Z" style="fill:#5d380b"></path><path d="M86.78,118.77C76.43,103.54,65.44,88.33,54.87,73.26c-.31-.43-1-1.69-.35-2.16,2.16-1.56,3.78-2.51,5.94-4.08.21-.15,4.09,3.08,4.54,3.41l7.17,6.12c5.38,4.56,11.14,9.18,16.68,13.51A11,11,0,0,1,91.1,92c.15.21.94.85,1.1,1.07s.79.63,1.15.37.43-.31.27-.53l-3.85-5.33c-.57-.79-5.46-8-6-8.8L70.66,60.64l0-.69,5.48-4c.58-.42,1.11-.14,1.58.06l1.3,1.8c3.13,4.32,5.88,8.59,9,12.91,7.34,10.61,24.54,35.15,24.54,35.15l-.1.63-8.29,6a5.3,5.3,0,0,1-1-.16,2.53,2.53,0,0,1-1.16-.7c-4-3.45-7.88-6.81-12-9.89l-.46-.32c-1-.48-8.95-7.68-9.53-7.27l-.22.16,0,.32c4.94,7.29,10.2,14.57,15.3,21.63a2.08,2.08,0,0,1-.32,2.43L90,122.27l-.38-.06-.63-.42Z" style="fill:#5d380b"></path><path d="M124.66,96.86c-.22-.49-1.08-2-1.16-2.11l-13.33-29.4c-.29-.65-2.15-4.1-2.44-4.75L99.65,42.79a1.56,1.56,0,0,1,.71-.81l11.33-5.14a10.41,10.41,0,0,1,4.58-1.1,5.38,5.38,0,0,1,2.13.59c3.52,1.53,5.79,4.6,7.33,8,1,2.19,13,29,15.71,34.86,1.47,3.24,2.87,7.19-1,12.06a10.44,10.44,0,0,1-3.11,2.19c-.65.3-3.65,1.85-4.22,2.11l-.13.35-1.41.35a24.53,24.53,0,0,1-3.94,2.08l-1.45.66C125.34,98.8,125,97.51,124.66,96.86Zm6.63-8.18c2.43-1.11,3.65-2.73,3.07-5.3-.61-1.77-12.76-28.58-13.54-30.28-1.17-2.59-1.94-4.29-3.39-7.05-1.2-2-3.67-1.85-5.61-1-.49.22-1.41.34-1.25,1.34,1.14,2.51,17.46,39.15,18.6,41.66l.11.24C129.64,89.13,130.65,89,131.29,88.68Z" style="fill:#5d380b"></path><path d="M144,24.78l.37-.37c5.43-1.38,14.15-3.52,17.62-3.95l.63.3,1.6,6.29c-.15.13-.12.58-.34.82l-9.73,2.49c-.27,2.54.83,5.38,1.16,6.68.72,2.84,2.71,11,3.74,10.7l6-1.55c.52-.13,1.12-.28,1.28.32l1.49,5.86a.91.91,0,0,1-.25.8c-2.07.53-4.18.88-6.16,1.39-.43.11-1.25.5-1.07,1.19L165.06,74c.11.44.46,1.81,1.39,1.85,1-.24,6.5-1.48,9.86-2.34l.56,0,.4,1.55c.16.61,1.89,5.58.08,6-1,.27-2.11.36-3.32.67-.48-.07-1.27-.32-1.23-.15,0-.08-.5.22-.82.4-3.61,1.29-3.13-.4-4.59,0-.26.8-4.56,2.63-6,3-1.81.46-2.45-2-2.72-3.07Z" style="fill:#5d380b"></path><path d="M199.87,77.31c0,.45-1.94.32-1.85.4-.44,0-4.63.07-5.07.1-.27,0-.53.12-.88.15-.53,0-1.17-.09-1.29-.62-1.53-21.38-3.69-49.12-4.46-59.94-.29-1.59.13-1.88,1.37-2,6.56-.56,16.41-1.18,18.27-.15,4.83,2.78,5.68,8.51,6,13.57.22,3.19.53,10-1.58,12.94-.64.94-2.85,2.52-2.81,3.06.1,1.42.58.67,1.79,1.3A6.32,6.32,0,0,1,213.14,51c0,.18.89,6.27.9,6.44.47,6.48.9,12.51,1.82,15.47a16.84,16.84,0,0,1,.93,3c0,.8-1.12.61-1.65.65l-7.63.55c-1.15-2.42-1.3-5.71-1.48-8.28-.47-6.56-1.49-14.6-1.61-16.29-.28-4-4.74-4-5.9-3.94-.71,0-1,.33-.91.95,0,.27.37,1.4.38,1.58ZM198.8,42.45c2.13-.16,4.12-1,4.67-3.37-.33-4.52-.31-6.75-.79-13.49-.8-2.53-3.16-3.07-5.82-2.88-1.24.08-.65,3.34-.62,3.87.16,2.22,1.21,13.2,1.38,15.5C197.83,42.52,198.27,42.48,198.8,42.45Z" style="fill:#5d380b"></path><path d="M230.68,66.81c.06-.53,0-2,0-2l4.17-36a19.9,19.9,0,0,1,4.87-11.07l.29-.24c3.11-2.06,4.16-2.65,8.22-2.18a9.38,9.38,0,0,1,5.31,2.05,37.31,37.31,0,0,1,2.35,3,18.73,18.73,0,0,1,1.43,3.11c.58,2.67-.26,7.58-.58,11.13a1.29,1.29,0,0,0-.57,1.09c-.09.8.12,1.27.07,1.71-.14,1.24-1.79.78-2.5.7l-4.06-.47c-.62-.07-.85-.37-.78-1l1-8.3c.25-2.12.38-4.79-2.54-5.13-3.8-.44-4,3.48-4.31,6.31l-.22,1.94c-.61,5.21-3.31,30.05-3.92,35.35,0,2.41.75,4.38,3.4,4.69a4.7,4.7,0,0,0,3.45-1.21c.32-.5,1.16-1.57,1.16-1.57l1.39-12,.29-.15,3.36.39c1,.11,3.33.57,3.33.57l.41.31-1,8.84a18.88,18.88,0,0,1-2.88,7.9c-2.38,4.29-6.54,4.61-11.13,4.08a14.34,14.34,0,0,1-6-2l-.65-.53C231.47,73.17,230.77,70.67,230.68,66.81Z" style="fill:#5d380b"></path><path d="M270.49,82.94c-.24-.72-1.35-2.84-1.35-2.84-1.35-3.41-.58-7.36,0-10.8.16-.51.41-2.2.46-2.37l8.5-27.15s.89-2,1.1-2.64c.14-.42.73-1.73.81-2a18.72,18.72,0,0,1,1.33-2.48c.08-.25,1.74-1.69,1.82-1.94l.44-.8c1.86-2.67,4.72-5,8.06-5.21a15.45,15.45,0,0,1,2.42.3l.9.09c.26.08,2,.81,2.41.94,1,.6,3.06,1.24,3.9,2.43,3.05,3.94,2.57,9.94,1.92,14.39l-4.86,15.53c-1,3.14-4.23,12.93-4.65,14.29-.08.25-1.48,3.82-2.08,4.85-1.8,4.28-5.75,8.26-10.34,9.52a7.13,7.13,0,0,1-3.18,0l-4.5-1.41c-.25-.08-.72-1-1-1-.55-.64-1.45-.74-2-1.37Zm6.4-10c-.14.42-.45,2-.53,2.26a2.25,2.25,0,0,0,.51,1.65,17.92,17.92,0,0,1,1.52,1.4l.93.29c2.63.83,3.66-1.55,4.35-3.76.34-1.1,2.08-6.06,2.35-6.91,1.4-4.49,8.11-25,9.52-29.53.08-.26.08-1.75.13-1.92l-.09-.58-.88-1.68a4.42,4.42,0,0,0-1.53-.75A3.48,3.48,0,0,0,289,34.79c-.56,1.79-3.26,9.79-3.81,11.58Z" style="fill:#5d380b"></path><path d="M310.76,81.9l8.81-22.8c1.66-4.65,3.63-9.34,5.56-14a40.41,40.41,0,0,1,2.35-5.4l.41-.79.28-.15,6.22,3.28c1.26.66.47,2.16.05,2.94-.12.24-.84,2-1,2.21-.9,2.84-4.6,11.75-4.82,12.74-.33.63-2.34,6.91-2.67,7.54-.12.23-1.25,2.76-1.38,3s-.42,1.38-.51,1.54c-.21.39-.51,1.54.12,1.87l.24.13a2.61,2.61,0,0,0,.44-.47c.13-.24,1.44-2.16,1.57-2.39,3-4.23,6-8.38,9-12.65.12-.24,1-1.29,1.1-1.53s1.36-2,1.44-2.15,1.6-2.08,1.73-2.31,1.11-1.73,1.19-1.89a9.26,9.26,0,0,1,.82-1c.08-.16.77-.9.9-1.14a8.16,8.16,0,0,1,.57-.7s.57-.5.72-.42l5.19,2.74c.63.33.3,1,.09,1.35,0,0-1,1.37-1.23,1.77-6.08,8.65-12,17.39-18.15,26-3.81,5.12-7.66,9.93-11.27,15.26-.21.39-2,2.78-2.22,3.25-.09.16-.78.9-.78.9-.12.24-.82,1.17-.94,1.41s-1.19,1.69-1.82,1.35l-2.44-1.28c-1.73-.92-5.27-3-5.27-3l-.14-.68C307.2,91.68,309,86.79,310.76,81.9Z" style="fill:#5d380b"></path><path d="M369.23,62.92l.51.06c4.44,3.42,11.5,9,14,11.45l.15.67-4,5.15c-.19,0-.53.26-.85.23l-8-6.13c-2.17,1.36-3.74,4-4.55,5-1.79,2.33-7,8.89-6.12,9.55l4.93,3.8c.42.32.91.7.53,1.2l-3.69,4.79a.92.92,0,0,1-.79.29c-1.69-1.31-3.27-2.75-4.89-4-.35-.27-1.16-.67-1.6-.11L343.4,109.82c-.27.35-1.14,1.48-.6,2.23.78.6,5.18,4.22,7.92,6.34l.32.46-1,1.27c-.38.49-3.23,4.92-4.71,3.78-.84-.65-1.58-1.45-2.57-2.21-.24-.41-.53-1.19-.64-1,.05-.07-.48-.26-.81-.41-3.25-2-1.62-2.7-2.82-3.63-.79.3-4.88-2-6.08-2.89-1.48-1.14.1-3.18.75-4Z" style="fill:#5d380b"></path><path d="M362.3,139.3c-.33.3-1.44-1.33-1.45-1.2-.3-.33-2.91-3.61-3.2-3.94s-.43-.34-.67-.6-.64-1-.3-1.4c15.88-14.38,36.4-33.2,44.44-40.48,1.07-1.2,1.56-1.05,2.4-.13,4.48,4.82,11,12.2,11.38,14.29.79,5.52-3.19,9.73-6.95,13.13-2.37,2.15-7.57,6.61-11.16,6.75-1.14.07-3.75-.69-4.14-.34-1.06,1-.17.88.07,2.21a6.31,6.31,0,0,1-1.49,5.91c-.13.12-4.38,4.57-4.51,4.69-4.81,4.35-9.29,8.41-11.06,11a16.57,16.57,0,0,1-1.76,2.55c-.66.47-1.17-.5-1.53-.89l-5.13-5.67c1.18-2.4,3.68-4.54,5.6-6.27,4.87-4.42,10.57-10.18,11.83-11.31,3-2.69.24-6.22-.53-7.08-.48-.53-.86-.54-1.32-.13-.19.18-.87,1.16-1,1.28ZM389.1,117c1.43,1.58,3.33,2.62,5.52,1.6,3.36-3,5.13-4.41,10.14-8.94,1.5-2.19.47-4.39-1.32-6.36-.83-.93-3,1.55-3.43,1.9-1.65,1.5-9.64,9.09-11.36,10.65C388.44,116.24,388.74,116.56,389.1,117Z" style="fill:#5d380b"></path><path d="M376,155.81c1.14-.89,2.13-1.56,3.26-2.44,0,0,.06,0,.06-.13l-.41-.53a.13.13,0,0,1,0-.16l.53-.41s0,0,.07,0c.58.75,1.23,1.58,1.41,1.88v0c-.21.14-.51.42-.71.43-.14-.19-.25-.36-.39-.53s-.05,0-.08,0l-1.58,1.23c-.73.58-1.51,1.16-1.69,1.3h-.07l-.44-.57S376,155.82,376,155.81Zm1.25,1.58a1,1,0,0,1,.17-.15l.26-.2,2.91-2.32.44-.39.06,0s.08,0,.12,0l.4.48.48.62,0,.05a1,1,0,0,1-.21.21c-.38.47-.88,1-1.24,1.39,0,0,0,.08,0,.11s1.91-1.14,2-1l.83,1.07a.06.06,0,0,1,0,.08l-.2.19L381,159.33a14,14,0,0,1-1.19,1l-.13.1c-.05,0-.13,0-.18-.05h0c-.05-.06-.39-.53-.45-.6s0-.11.07-.15l2.35-1.83.19-.2s0-.05,0-.06,0,0-.08,0l-.09,0c-.57.33-1.35.66-1.93,1-.17.11-.36.19-.53.3l-.25.12-.1,0-.1.08a.06.06,0,0,1-.06,0l-.27-.34,0-.07c.27-.28.55-.59.78-.87.42-.48.84-1.07,1.21-1.52.07-.1.28-.21.2-.37l-.06,0-.14.12c-.76.58-1.57,1.36-2.32,1.94l-.18.14s-.09-.07-.09-.07l-.41-.54S377.29,157.39,377.29,157.39Z" style="fill:#5d380b"></path></svg>